# xmcd
#
# Track frame offsets:
# 150
# 19433
# 43573
# 60526
# 82673
# 102095
# 119907
# 138422
# 156326
# 181424
# 197897
# 216947
# 231191
# 251356
# 274099
#
# Disc length: 3934 seconds
#
#
# Revision: 4
# Processed by: cddbd v1.5PL3 Copyright (c) Steve Scherf et al.
# Submitted via: FreeRIP 2.12 
#
DISCID=d60f5c0f
DTITLE=2Pac - Until The End Of Time
DYEAR=1900
DGENRE=
TTITLE0=Ballad Of A Dead Soulja
TTITLE1=F*** Friendz
TTITLE2=Lil' Homies
TTITLE3=Let Em Have It
TTITLE4=Good Life
TTITLE5=Letter 2 My Unborn 
TTITLE6=Breathin
TTITLE7=Happy Home
TTITLE8=All Out
TTITLE9=F***** Wit The wrong N****
TTITLE10=Thug N U Thug N Me (Remix)
TTITLE11=Everything They Owe
TTITLE12=Until The End Of Time
TTITLE13=M.O.B.
TTITLE14=World Wide Mob Figgaz
EXTD=
EXTT0=
EXTT1=
EXTT2=
EXTT3=
EXTT4=
EXTT5=
EXTT6=
EXTT7=
EXTT8=
EXTT9=
EXTT10=
EXTT11=
EXTT12=
EXTT13=
EXTT14=
PLAYORDER=
